<mxfile host="app.diagrams.net" modified="2021-05-10T03:40:45.012Z" agent="5.0 (Windows NT 10.0; Win64; x64) AppleWebKit/537.36 (KHTML, like Gecko) Chrome/90.0.4430.93 Safari/537.36" etag="9LgnEDTeUjR-XSXnitcT" version="14.6.11" type="github">
  <diagram id="tcFBSVUJmimjYkq-PXW4" name="Page-1">
    <mxGraphModel dx="981" dy="554" grid="1" gridSize="10" guides="1" tooltips="1" connect="1" arrows="1" fold="1" page="1" pageScale="1" pageWidth="827" pageHeight="1169" math="0" shadow="0">
      <root>
        <mxCell id="0" />
        <mxCell id="1" parent="0" />
        <mxCell id="ZZgwk1yMt2bHO_IGxHTC-16" style="edgeStyle=orthogonalEdgeStyle;rounded=0;orthogonalLoop=1;jettySize=auto;html=1;exitX=0.5;exitY=0;exitDx=0;exitDy=0;exitPerimeter=0;entryX=0.5;entryY=1;entryDx=0;entryDy=0;entryPerimeter=0;" edge="1" parent="1" source="ZZgwk1yMt2bHO_IGxHTC-3" target="ZZgwk1yMt2bHO_IGxHTC-4">
          <mxGeometry relative="1" as="geometry" />
        </mxCell>
        <mxCell id="ZZgwk1yMt2bHO_IGxHTC-20" value="分析" style="edgeLabel;html=1;align=center;verticalAlign=middle;resizable=0;points=[];" vertex="1" connectable="0" parent="ZZgwk1yMt2bHO_IGxHTC-16">
          <mxGeometry x="-0.1586" y="-1" relative="1" as="geometry">
            <mxPoint as="offset" />
          </mxGeometry>
        </mxCell>
        <mxCell id="ZZgwk1yMt2bHO_IGxHTC-3" value="数据" style="shape=cylinder3;whiteSpace=wrap;html=1;boundedLbl=1;backgroundOutline=1;size=15;" vertex="1" parent="1">
          <mxGeometry x="210" y="430" width="60" height="80" as="geometry" />
        </mxCell>
        <mxCell id="ZZgwk1yMt2bHO_IGxHTC-17" style="edgeStyle=orthogonalEdgeStyle;rounded=0;orthogonalLoop=1;jettySize=auto;html=1;exitX=1;exitY=0.5;exitDx=0;exitDy=0;exitPerimeter=0;" edge="1" parent="1" source="ZZgwk1yMt2bHO_IGxHTC-4" target="ZZgwk1yMt2bHO_IGxHTC-5">
          <mxGeometry relative="1" as="geometry" />
        </mxCell>
        <mxCell id="ZZgwk1yMt2bHO_IGxHTC-21" value="应用" style="edgeLabel;html=1;align=center;verticalAlign=middle;resizable=0;points=[];" vertex="1" connectable="0" parent="ZZgwk1yMt2bHO_IGxHTC-17">
          <mxGeometry x="0.271" y="-2" relative="1" as="geometry">
            <mxPoint x="-12" y="-2" as="offset" />
          </mxGeometry>
        </mxCell>
        <mxCell id="ZZgwk1yMt2bHO_IGxHTC-4" value="知识" style="shape=cylinder3;whiteSpace=wrap;html=1;boundedLbl=1;backgroundOutline=1;size=15;" vertex="1" parent="1">
          <mxGeometry x="210" y="270" width="60" height="80" as="geometry" />
        </mxCell>
        <mxCell id="ZZgwk1yMt2bHO_IGxHTC-18" style="edgeStyle=orthogonalEdgeStyle;rounded=0;orthogonalLoop=1;jettySize=auto;html=1;exitX=0.5;exitY=1;exitDx=0;exitDy=0;exitPerimeter=0;entryX=0.5;entryY=0;entryDx=0;entryDy=0;entryPerimeter=0;" edge="1" parent="1" source="ZZgwk1yMt2bHO_IGxHTC-5" target="ZZgwk1yMt2bHO_IGxHTC-13">
          <mxGeometry relative="1" as="geometry" />
        </mxCell>
        <mxCell id="ZZgwk1yMt2bHO_IGxHTC-22" value="实施" style="edgeLabel;html=1;align=center;verticalAlign=middle;resizable=0;points=[];" vertex="1" connectable="0" parent="ZZgwk1yMt2bHO_IGxHTC-18">
          <mxGeometry x="-0.2552" y="2" relative="1" as="geometry">
            <mxPoint x="-2" y="10" as="offset" />
          </mxGeometry>
        </mxCell>
        <mxCell id="ZZgwk1yMt2bHO_IGxHTC-5" value="政策" style="shape=cylinder3;whiteSpace=wrap;html=1;boundedLbl=1;backgroundOutline=1;size=15;" vertex="1" parent="1">
          <mxGeometry x="384" y="270" width="60" height="80" as="geometry" />
        </mxCell>
        <mxCell id="ZZgwk1yMt2bHO_IGxHTC-15" style="edgeStyle=orthogonalEdgeStyle;rounded=0;orthogonalLoop=1;jettySize=auto;html=1;exitX=0;exitY=0.5;exitDx=0;exitDy=0;exitPerimeter=0;" edge="1" parent="1" source="ZZgwk1yMt2bHO_IGxHTC-13" target="ZZgwk1yMt2bHO_IGxHTC-3">
          <mxGeometry relative="1" as="geometry" />
        </mxCell>
        <mxCell id="ZZgwk1yMt2bHO_IGxHTC-19" value="评估" style="edgeLabel;html=1;align=center;verticalAlign=middle;resizable=0;points=[];" vertex="1" connectable="0" parent="ZZgwk1yMt2bHO_IGxHTC-15">
          <mxGeometry x="-0.1742" y="4" relative="1" as="geometry">
            <mxPoint x="-7" y="-4" as="offset" />
          </mxGeometry>
        </mxCell>
        <mxCell id="ZZgwk1yMt2bHO_IGxHTC-13" value="效果" style="shape=cylinder3;whiteSpace=wrap;html=1;boundedLbl=1;backgroundOutline=1;size=15;" vertex="1" parent="1">
          <mxGeometry x="384" y="430" width="60" height="80" as="geometry" />
        </mxCell>
      </root>
    </mxGraphModel>
  </diagram>
</mxfile>
